<svg width="225" height="61" viewBox="0 0 225 61" fill="none" xmlns="http://www.w3.org/2000/svg">
<path d="M59 61L0 61L13.0054 43.8243L0 30L59 30V61Z" fill="#3A63ED" fill-opacity="0.7"/>
<path d="M166 30H225L211.995 47.1757L225 61H166V30Z" fill="#3A63ED" fill-opacity="0.7"/>
<rect x="25" width="181" height="51" rx="6" fill="#3A63ED"/>
<path d="M55.5294 8L61.8279 18.7387L74.0588 21.3688L65.7206 30.6358L66.9812 43L55.5294 37.9887L44.0776 43L45.3382 30.6358L37 21.3688L49.2309 18.7387L55.5294 8Z" fill="#FFCB45"/>
<path d="M81.4801 36.225C81.0134 36.225 80.6301 36.1167 80.3301 35.9C80.0467 35.6833 79.8634 35.3917 79.7801 35.025C79.7134 34.6583 79.7884 34.25 80.0051 33.8L86.4051 19.775C86.6717 19.2083 86.9884 18.8 87.3551 18.55C87.7217 18.2833 88.1467 18.15 88.6301 18.15C89.1134 18.15 89.5384 18.2833 89.9051 18.55C90.2717 18.8 90.5801 19.2083 90.8301 19.775L97.2801 33.8C97.4967 34.25 97.5717 34.6667 97.5051 35.05C97.4551 35.4167 97.2884 35.7083 97.0051 35.925C96.7217 36.125 96.3551 36.225 95.9051 36.225C95.3384 36.225 94.8967 36.0917 94.5801 35.825C94.2801 35.5583 94.0134 35.1417 93.7801 34.575L92.2801 31.1L93.8301 32.175H83.4051L84.9551 31.1L83.4801 34.575C83.2301 35.1583 82.9634 35.5833 82.6801 35.85C82.4134 36.1 82.0134 36.225 81.4801 36.225ZM88.5801 22.5L85.3801 30.125L84.7051 29.15H92.5301L91.8551 30.125L88.6301 22.5H88.5801ZM101.753 36.225C101.12 36.225 100.637 36.05 100.303 35.7C99.97 35.35 99.8033 34.8583 99.8033 34.225V20.15C99.8033 19.5167 99.97 19.025 100.303 18.675C100.637 18.325 101.12 18.15 101.753 18.15C102.37 18.15 102.845 18.325 103.178 18.675C103.512 19.025 103.678 19.5167 103.678 20.15V34.225C103.678 34.8583 103.512 35.35 103.178 35.7C102.862 36.05 102.387 36.225 101.753 36.225ZM120.358 36.225C119.724 36.225 119.241 36.05 118.908 35.7C118.574 35.35 118.408 34.8583 118.408 34.225V21.575H113.983C113.466 21.575 113.066 21.4333 112.783 21.15C112.499 20.8667 112.358 20.475 112.358 19.975C112.358 19.4583 112.499 19.0667 112.783 18.8C113.066 18.5167 113.466 18.375 113.983 18.375H126.708C127.224 18.375 127.624 18.5167 127.908 18.8C128.191 19.0667 128.333 19.4583 128.333 19.975C128.333 20.475 128.191 20.8667 127.908 21.15C127.624 21.4333 127.224 21.575 126.708 21.575H122.283V34.225C122.283 34.8583 122.116 35.35 121.783 35.7C121.466 36.05 120.991 36.225 120.358 36.225ZM132.029 36C131.379 36 130.879 35.825 130.529 35.475C130.179 35.125 130.004 34.625 130.004 33.975V20.4C130.004 19.75 130.179 19.25 130.529 18.9C130.879 18.55 131.379 18.375 132.029 18.375H140.754C141.254 18.375 141.629 18.5083 141.879 18.775C142.145 19.025 142.279 19.3917 142.279 19.875C142.279 20.375 142.145 20.7583 141.879 21.025C141.629 21.275 141.254 21.4 140.754 21.4H133.704V25.525H140.179C140.695 25.525 141.079 25.6583 141.329 25.925C141.595 26.175 141.729 26.55 141.729 27.05C141.729 27.55 141.595 27.9333 141.329 28.2C141.079 28.45 140.695 28.575 140.179 28.575H133.704V32.975H140.754C141.254 32.975 141.629 33.1083 141.879 33.375C142.145 33.625 142.279 33.9917 142.279 34.475C142.279 34.975 142.145 35.3583 141.879 35.625C141.629 35.875 141.254 36 140.754 36H132.029ZM145.347 36.225C144.881 36.225 144.497 36.1167 144.197 35.9C143.914 35.6833 143.731 35.3917 143.647 35.025C143.581 34.6583 143.656 34.25 143.872 33.8L150.272 19.775C150.539 19.2083 150.856 18.8 151.222 18.55C151.589 18.2833 152.014 18.15 152.497 18.15C152.981 18.15 153.406 18.2833 153.772 18.55C154.139 18.8 154.447 19.2083 154.697 19.775L161.147 33.8C161.364 34.25 161.439 34.6667 161.372 35.05C161.322 35.4167 161.156 35.7083 160.872 35.925C160.589 36.125 160.222 36.225 159.772 36.225C159.206 36.225 158.764 36.0917 158.447 35.825C158.147 35.5583 157.881 35.1417 157.647 34.575L156.147 31.1L157.697 32.175H147.272L148.822 31.1L147.347 34.575C147.097 35.1583 146.831 35.5833 146.547 35.85C146.281 36.1 145.881 36.225 145.347 36.225ZM152.447 22.5L149.247 30.125L148.572 29.15H156.397L155.722 30.125L152.497 22.5H152.447ZM165.471 36.225C164.904 36.225 164.471 36.0667 164.171 35.75C163.871 35.4333 163.721 34.9917 163.721 34.425V19.95C163.721 19.3833 163.879 18.9417 164.196 18.625C164.529 18.3083 164.979 18.15 165.546 18.15C166.046 18.15 166.437 18.25 166.721 18.45C167.021 18.6333 167.296 18.9583 167.546 19.425L173.321 29.975H172.471L178.246 19.425C178.496 18.9583 178.762 18.6333 179.046 18.45C179.346 18.25 179.737 18.15 180.221 18.15C180.787 18.15 181.221 18.3083 181.521 18.625C181.837 18.9417 181.996 19.3833 181.996 19.95V34.425C181.996 34.9917 181.846 35.4333 181.546 35.75C181.246 36.0667 180.812 36.225 180.246 36.225C179.679 36.225 179.237 36.0667 178.921 35.75C178.621 35.4333 178.471 34.9917 178.471 34.425V24.3H179.021L174.371 32.625C174.171 32.9417 173.954 33.1833 173.721 33.35C173.504 33.5 173.212 33.575 172.846 33.575C172.479 33.575 172.179 33.4917 171.946 33.325C171.712 33.1583 171.504 32.925 171.321 32.625L166.621 24.275H167.221V34.425C167.221 34.9917 167.071 35.4333 166.771 35.75C166.487 36.0667 166.054 36.225 165.471 36.225Z" fill="white"/>
</svg>
