<svg width="26" height="39" viewBox="0 0 26 39" fill="none" xmlns="http://www.w3.org/2000/svg">
<path d="M0 6.03662L4.83112 5.79088L8.65263 36.1943L7.20743 38.0331L5.20183 36.3699L0 6.03662Z" fill="white"/>
<path d="M10.5 6H14.9999L14.3571 37.3899L12.75 38.9996L10.8214 37.3899L10.5 6Z" fill="white"/>
<path d="M21.1699 5.3999L26.0001 5.65168L20.1465 37.1029L18.1567 38.6277L16.3514 36.905L21.1699 5.3999Z" fill="white"/>
<rect width="5.25375" height="3.01764" rx="1" transform="matrix(0.986522 -0.16363 0.216026 0.976388 3.9231 1.65039)" fill="white"/>
<rect width="7.58875" height="1.81059" rx="0.905293" transform="matrix(0.986522 -0.16363 0.216026 0.976388 2.9021 2.43066)" fill="white"/>
<rect width="6.11767" height="3.07466" rx="1" transform="matrix(0.93934 0.342988 -0.437883 0.899032 16.4824 0.466309)" fill="white"/>
<rect width="8.83663" height="1.8448" rx="0.922398" transform="matrix(0.93934 0.342988 -0.437883 0.899032 14.9363 0.553223)" fill="white"/>
<circle cx="17.1363" cy="13.5908" r="4.81814" fill="white" stroke="#365DDE"/>
<path d="M21.2722 11.2271L19.4995 10.6363L18.9086 10.6363L17.7268 10.6363L16.5638 11.2047L15.3908 11.7851L14.2211 12.9523L13.6395 14.1229L13.5185 16.8456" stroke="#365DDE"/>
</svg>
