<svg width="25" height="24" viewBox="0 0 25 24" fill="none" xmlns="http://www.w3.org/2000/svg">
<path fill-rule="evenodd" clip-rule="evenodd" d="M19.5 7.5C19.5 9.98528 17.4853 12 15 12C12.5147 12 10.5 9.98528 10.5 7.5C10.5 5.01472 12.5147 3 15 3C17.4853 3 19.5 5.01472 19.5 7.5ZM17.5 7.5C17.5 8.88071 16.3807 10 15 10C13.6193 10 12.5 8.88071 12.5 7.5C12.5 6.11929 13.6193 5 15 5C16.3807 5 17.5 6.11929 17.5 7.5Z" fill="#14212E" fill-opacity="0.62"/>
<path fill-rule="evenodd" clip-rule="evenodd" d="M8.52154 12.5347C6.53775 11.8133 4.32909 12.0788 2.57273 13.2497C1.90255 13.6965 1.5 14.4486 1.5 15.2541V18C1.5 19.6569 2.84315 21 4.5 21H7.43774L13.6883 21.7813C14.9715 21.9417 16.2742 21.7528 17.459 21.2344L22.2218 19.1507C23.6646 18.5195 24.2249 16.7645 23.4146 15.414C22.8687 14.5041 21.8265 14.0149 20.7777 14.1763L16.2334 14.8754C15.8218 14.0595 14.9762 13.5 14 13.5H11.674C11.3447 13.5 11.0178 13.4424 10.7083 13.3299L8.52154 12.5347ZM14 16.5C14.273 16.5 14.4949 16.2812 14.4999 16.0093L14.4999 15.9898C14.4945 15.7184 14.2727 15.5 14 15.5H11.674C11.1116 15.5 10.5534 15.4017 10.0248 15.2094L7.83805 14.4143C6.45215 13.9103 4.90915 14.0958 3.68213 14.9138C3.56835 14.9896 3.5 15.1173 3.5 15.2541V18C3.5 18.5523 3.94772 19 4.5 19H7.5C7.54146 19 7.58289 19.0026 7.62403 19.0077L13.9364 19.7968C14.8624 19.9125 15.8024 19.7762 16.6574 19.4021L21.4202 17.3184C21.7582 17.1705 21.8894 16.7594 21.6996 16.443C21.5717 16.2298 21.3276 16.1152 21.0819 16.153L16.3398 16.8826C15.983 17.8278 15.07 18.5 14 18.5H8.5C7.94772 18.5 7.5 18.0523 7.5 17.5C7.5 16.9477 7.94772 16.5 8.5 16.5H14Z" fill="#14212E" fill-opacity="0.62"/>
</svg>
