<svg width="25" height="24" viewBox="0 0 25 24" fill="none" xmlns="http://www.w3.org/2000/svg">
<g clip-path="url(#clip0_172_787)">
<path d="M4.61909 10.6171C5.27417 6.85789 8.55334 4 12.5 4C16.9183 4 20.5 7.58172 20.5 12C20.5 16.4183 16.9183 20 12.5 20C9.61031 20 7.07741 18.4685 5.67015 16.1682C5.38194 15.6971 4.76638 15.5488 4.29527 15.837C3.82415 16.1252 3.67587 16.7408 3.96408 17.2119C5.71957 20.0815 8.88529 22 12.5 22C18.0228 22 22.5 17.5228 22.5 12C22.5 6.47715 18.0228 2 12.5 2C7.47271 2 3.31188 5.70974 2.60566 10.5411L2.3575 10.2929C1.96697 9.90237 1.33381 9.90237 0.943284 10.2929C0.55276 10.6834 0.55276 11.3166 0.943284 11.7071L2.94328 13.7071C3.33381 14.0976 3.96697 14.0976 4.3575 13.7071L6.3575 11.7071C6.74802 11.3166 6.74802 10.6834 6.3575 10.2929C5.96697 9.90237 5.33381 9.90237 4.94328 10.2929L4.61909 10.6171Z" fill="#14212E" fill-opacity="0.62"/>
<path d="M11.5 6.5C12.0523 6.5 12.5 6.94772 12.5 7.5V12H15.5C16.0523 12 16.5 12.4477 16.5 13C16.5 13.5523 16.0523 14 15.5 14H12C11.1716 14 10.5 13.3284 10.5 12.5V7.5C10.5 6.94772 10.9477 6.5 11.5 6.5Z" fill="#14212E" fill-opacity="0.62"/>
</g>
<defs>
<clipPath id="clip0_172_787">
<rect width="24" height="24" fill="white" transform="translate(0.5)"/>
</clipPath>
</defs>
</svg>
