<svg width="24" height="24" viewBox="0 0 24 24" fill="none" xmlns="http://www.w3.org/2000/svg">
<path fill-rule="evenodd" clip-rule="evenodd" d="M17 7C17 6.5355 17 6.30325 17.0308 6.10891C17.2002 5.03918 18.0392 4.20021 19.1089 4.03078C19.3032 4 19.5355 4 20 4C20.4645 4 20.6968 4 20.8911 4.03078C21.9608 4.20021 22.7998 5.03918 22.9692 6.10891C23 6.30325 23 6.5355 23 7V19C23 19.4645 23 19.6968 22.9692 19.8911C22.7998 20.9608 21.9608 21.7998 20.8911 21.9692C20.6968 22 20.4645 22 20 22C19.5355 22 19.3032 22 19.1089 21.9692C18.0392 21.7998 17.2002 20.9608 17.0308 19.8911C17 19.6968 17 19.4645 17 19V7ZM21 7V19C21 19.2431 20.9998 19.3854 20.9969 19.4921C20.9954 19.5484 20.9934 19.5764 20.9926 19.5857C20.9565 19.7936 20.7936 19.9565 20.5857 19.9926C20.5763 19.9934 20.5484 19.9954 20.4921 19.9969C20.3854 19.9998 20.2431 20 20 20C19.7569 20 19.6146 19.9998 19.5079 19.9969C19.4516 19.9954 19.4237 19.9934 19.4143 19.9926C19.2064 19.9565 19.0435 19.7936 19.0074 19.5857C19.0066 19.5764 19.0046 19.5484 19.0031 19.4921C19.0002 19.3854 19 19.2431 19 19V7C19 6.75691 19.0002 6.6146 19.0031 6.50792C19.0046 6.45157 19.0066 6.42365 19.0074 6.41429C19.0435 6.20642 19.2064 6.04354 19.4143 6.0074C19.4237 6.00663 19.4516 6.00464 19.5079 6.0031C19.6146 6.00017 19.7569 6 20 6C20.2431 6 20.3854 6.00017 20.4921 6.0031C20.5484 6.00464 20.5763 6.00663 20.5857 6.0074C20.7936 6.04354 20.9565 6.20642 20.9926 6.41429C20.9934 6.42365 20.9954 6.45157 20.9969 6.50792C20.9998 6.6146 21 6.75691 21 7Z" fill="#14212E" fill-opacity="0.62"/>
<path fill-rule="evenodd" clip-rule="evenodd" d="M9.03078 10.1089C9 10.3032 9 10.5355 9 11V19C9 19.4645 9 19.6968 9.03078 19.8911C9.20021 20.9608 10.0392 21.7998 11.1089 21.9692C11.3032 22 11.5355 22 12 22C12.4645 22 12.6968 22 12.8911 21.9692C13.9608 21.7998 14.7998 20.9608 14.9692 19.8911C15 19.6968 15 19.4645 15 19V11C15 10.5355 15 10.3032 14.9692 10.1089C14.7998 9.03918 13.9608 8.20021 12.8911 8.03078C12.6968 8 12.4645 8 12 8C11.5355 8 11.3032 8 11.1089 8.03078C10.0392 8.20021 9.20021 9.03918 9.03078 10.1089ZM13 11C13 10.7569 12.9998 10.6146 12.9969 10.5079C12.9954 10.4516 12.9934 10.4237 12.9926 10.4143C12.9565 10.2064 12.7936 10.0435 12.5857 10.0074C12.5763 10.0066 12.5484 10.0046 12.4921 10.0031C12.3854 10.0002 12.2431 10 12 10C11.7569 10 11.6146 10.0002 11.5079 10.0031C11.4516 10.0046 11.4237 10.0066 11.4143 10.0074C11.2064 10.0435 11.0435 10.2064 11.0074 10.4143C11.0066 10.4237 11.0046 10.4516 11.0031 10.5079C11.0002 10.6146 11 10.7569 11 11V19C11 19.2431 11.0002 19.3854 11.0031 19.4921C11.0046 19.5484 11.0066 19.5764 11.0074 19.5857C11.0435 19.7936 11.2064 19.9565 11.4143 19.9926C11.4237 19.9934 11.4516 19.9954 11.5079 19.9969C11.6146 19.9998 11.7569 20 12 20C12.2431 20 12.3854 19.9998 12.4921 19.9969C12.5484 19.9954 12.5763 19.9934 12.5857 19.9926C12.7936 19.9565 12.9565 19.7936 12.9926 19.5857C12.9934 19.5764 12.9954 19.5484 12.9969 19.4921C12.9998 19.3854 13 19.2431 13 19V11Z" fill="#14212E" fill-opacity="0.62"/>
<path fill-rule="evenodd" clip-rule="evenodd" d="M1.03078 14.1089C1 14.3032 1 14.5355 1 15V19C1 19.4645 1 19.6968 1.03078 19.8911C1.20021 20.9608 2.03918 21.7998 3.10891 21.9692C3.30325 22 3.5355 22 4 22C4.4645 22 4.69675 22 4.89109 21.9692C5.96082 21.7998 6.79979 20.9608 6.96922 19.8911C7 19.6968 7 19.4645 7 19V15C7 14.5355 7 14.3032 6.96922 14.1089C6.79979 13.0392 5.96082 12.2002 4.89109 12.0308C4.69675 12 4.4645 12 4 12C3.5355 12 3.30325 12 3.10891 12.0308C2.03918 12.2002 1.20021 13.0392 1.03078 14.1089ZM5 19V15C5 14.7569 4.99983 14.6146 4.9969 14.5079C4.99536 14.4516 4.99337 14.4237 4.9926 14.4143C4.95646 14.2064 4.79358 14.0435 4.58571 14.0074C4.57635 14.0066 4.54843 14.0046 4.49208 14.0031C4.3854 14.0002 4.24309 14 4 14C3.75691 14 3.6146 14.0002 3.50792 14.0031C3.45157 14.0046 3.42365 14.0066 3.41429 14.0074C3.20642 14.0435 3.04354 14.2064 3.0074 14.4143C3.00663 14.4237 3.00464 14.4516 3.0031 14.5079C3.00017 14.6146 3 14.7569 3 15V19C3 19.2431 3.00017 19.3854 3.0031 19.4921C3.00464 19.5484 3.00663 19.5763 3.0074 19.5857C3.04354 19.7936 3.20642 19.9565 3.41429 19.9926C3.42366 19.9934 3.45158 19.9954 3.50792 19.9969C3.6146 19.9998 3.75691 20 4 20C4.24309 20 4.3854 19.9998 4.49208 19.9969C4.54842 19.9954 4.57634 19.9934 4.58571 19.9926C4.79358 19.9565 4.95646 19.7936 4.9926 19.5857C4.99337 19.5763 4.99536 19.5484 4.9969 19.4921C4.99983 19.3854 5 19.2431 5 19Z" fill="#14212E" fill-opacity="0.62"/>
</svg>
